<svg width="21" height="20" viewBox="0 0 21 20" fill="none" xmlns="http://www.w3.org/2000/svg">
<path fill-rule="evenodd" clip-rule="evenodd" d="M18.6477 3.25H4.83514L3.65497 1.1346C3.5225 0.897154 3.2719 0.75 3 0.75H1.5C1.08579 0.75 0.75 1.08579 0.75 1.5C0.75 1.91421 1.08579 2.25 1.5 2.25H2.5596L3.72429 4.33765L6.41037 10.2809L6.41312 10.2869L6.64971 10.8104L3.95287 13.687C3.75895 13.8939 3.69825 14.1924 3.79599 14.4585C3.89372 14.7247 4.13317 14.913 4.41486 14.9452L6.87299 15.2261C9.94767 15.5775 13.0524 15.5775 16.127 15.2261L18.5852 14.9452C18.9967 14.8981 19.2922 14.5264 19.2452 14.1148C19.1981 13.7033 18.8264 13.4078 18.4149 13.4549L15.9567 13.7358C12.9952 14.0742 10.0048 14.0742 7.04331 13.7358L6.06779 13.6243L8.04717 11.513C8.06632 11.4925 8.0841 11.4713 8.10052 11.4494L8.85334 11.5474C9.90826 11.6847 10.9746 11.7116 12.0351 11.6277C14.5086 11.4321 16.801 10.2551 18.4015 8.35907L18.9795 7.67425C18.999 7.65125 19.017 7.62711 19.0335 7.60194L20.1109 5.96009C20.8745 4.79633 20.0397 3.25 18.6477 3.25ZM8.15627 9.94405C7.99086 9.92253 7.84823 9.81745 7.77858 9.66604L7.77725 9.66311L5.55674 4.75H18.6477C18.8466 4.75 18.9658 4.9709 18.8567 5.13716L17.8042 6.74123L17.2552 7.39152C15.9132 8.98139 13.9909 9.96832 11.9169 10.1324C10.9603 10.208 9.99842 10.1837 9.04688 10.0599L8.15627 9.94405Z" fill="white"/>
<path d="M6 16.5C5.17157 16.5 4.5 17.1716 4.5 18C4.5 18.8284 5.17157 19.5 6 19.5C6.82843 19.5 7.5 18.8284 7.5 18C7.5 17.1716 6.82843 16.5 6 16.5Z" fill="white"/>
<path d="M15.5 18C15.5 17.1716 16.1716 16.5 17 16.5C17.8284 16.5 18.5 17.1716 18.5 18C18.5 18.8284 17.8284 19.5 17 19.5C16.1716 19.5 15.5 18.8284 15.5 18Z" fill="white"/>
</svg>
