<svg width="87" height="87" viewBox="0 0 87 87" fill="none" xmlns="http://www.w3.org/2000/svg">
<path fill-rule="evenodd" clip-rule="evenodd" d="M46.2591 2.07086L54.5465 28.9536C54.9342 30.2063 56.0478 31.1882 57.3031 31.1882H84.094C86.9054 31.1882 88.0736 34.8322 85.7943 36.5622L64.1363 52.9529C63.1172 53.7259 62.6896 55.0682 63.0774 56.3259L71.3573 83.0073C72.2273 85.8136 69.1649 88.1378 66.8905 86.4028L45.2052 69.858C44.1885 69.0825 42.8115 69.08 41.7948 69.8531L20.1095 86.3754C17.8351 88.1079 14.7752 85.7739 15.6452 82.97L23.9226 56.2961C24.3128 55.0408 23.8853 53.6638 22.8662 52.8907L1.20574 36.5622C-1.07365 34.8322 0.0946311 31.1882 2.90596 31.1882H29.6969C30.9547 31.1882 32.0682 30.2063 32.456 28.9536L40.7409 2.13548C41.6109 -0.668371 45.3916 -0.732998 46.2591 2.07086" fill="#FBD13F"/>
</svg>
